<svg width="20" height="20" viewBox="0 0 20 20" fill="none" xmlns="http://www.w3.org/2000/svg">
  <path d="M15 14.1667H5V12.5H15V14.1667ZM15 10.8333H5V9.16667H15V10.8333ZM15 7.50001H5V5.83334H15V7.50001ZM2.5 18.3333L3.75 17.0833L5 18.3333L6.25 17.0833L7.5 18.3333L8.75 17.0833L10 18.3333L11.25 17.0833L12.5 18.3333L13.75 17.0833L15 18.3333L16.25 17.0833L17.5 18.3333V1.66667L16.25 2.91667L15 1.66667L13.75 2.91667L12.5 1.66667L11.25 2.91667L10 1.66667L8.75 2.91667L7.5 1.66667L6.25 2.91667L5 1.66667L3.75 2.91667L2.5 1.66667V18.3333Z" fill="currentColor"/>
</svg>
