<svg width="20" height="20" viewBox="15 13 18 16" fill="none" xmlns="http://www.w3.org/2000/svg">
  <path d="M32.25 18.4083L31.375 14.7667C31.1917 14.0167 30.5417 13.5 29.7833 13.5H18.2083C17.4583 13.5 16.8 14.025 16.625 14.7667L15.75 18.4083C15.55 19.2583 15.7333 20.125 16.2667 20.8083C16.3333 20.9 16.425 20.9667 16.5 21.05V26.8333C16.5 27.75 17.25 28.5 18.1667 28.5H29.8333C30.75 28.5 31.5 27.75 31.5 26.8333V21.05C31.575 20.975 31.6667 20.9 31.7333 20.8167C32.2667 20.1333 32.4583 19.2583 32.25 18.4083ZM29.7583 15.1583L30.6333 18.8C30.7167 19.15 30.6417 19.5 30.425 19.775C30.3083 19.925 30.0583 20.1667 29.6417 20.1667C29.1333 20.1667 28.6917 19.7583 28.6333 19.2167L28.15 15.1667L29.7583 15.1583ZM24.8333 15.1667H26.4667L26.9167 18.9333C26.9583 19.2583 26.8583 19.5833 26.6417 19.825C26.4583 20.0417 26.1917 20.1667 25.85 20.1667C25.2917 20.1667 24.8333 19.675 24.8333 19.075V15.1667ZM21.075 18.9333L21.5333 15.1667H23.1667V19.075C23.1667 19.675 22.7083 20.1667 22.0917 20.1667C21.8083 20.1667 21.55 20.0417 21.35 19.825C21.1417 19.5833 21.0417 19.2583 21.075 18.9333ZM17.3667 18.8L18.2083 15.1667H19.85L19.3667 19.2167C19.3 19.7583 18.8667 20.1667 18.3583 20.1667C17.95 20.1667 17.6917 19.925 17.5833 19.775C17.3583 19.5083 17.2833 19.15 17.3667 18.8ZM18.1667 26.8333V21.8083C18.2333 21.8167 18.2917 21.8333 18.3583 21.8333C19.0833 21.8333 19.7417 21.5333 20.225 21.0417C20.725 21.5417 21.3917 21.8333 22.15 21.8333C22.875 21.8333 23.525 21.5333 24.0083 21.0583C24.5 21.5333 25.1667 21.8333 25.9167 21.8333C26.6167 21.8333 27.2833 21.5417 27.7833 21.0417C28.2667 21.5333 28.925 21.8333 29.65 21.8333C29.7167 21.8333 29.775 21.8167 29.8417 21.8083V26.8333H18.1667Z" fill="currentColor"/>
</svg>
