<svg width="150" height="32" viewBox="0 0 150 32" fill="none" xmlns="http://www.w3.org/2000/svg">
  <g clip-path="url(#clip0_espresso_logo)">
    <path d="M18.7024 12.3L19.3998 6.85H2.05444L2.75427 12.3H18.7024Z" fill="black" />
    <path d="M4.32202 24.52L5.08206 30.4325C5.18741 31.2525 5.88724 31.8675 6.71751 31.8675H14.7392C15.5695 31.8675 16.2693 31.2525 16.3747 30.4325L17.1548 24.345L4.32202 24.52Z" fill="black" />
    <path d="M4.11885 24.5875C3.49677 24.5875 3.09293 24.0375 3.03524 23.505L1.76098 13.2025C1.74593 12.9 1.83121 12.62 1.99677 12.39L2.01433 12.37C2.19493 12.1675 2.4558 12.0525 2.72671 12.05H18.6774C19.164 12.065 19.5779 12.44 19.6732 12.9375C19.6983 13.07 19.7058 13.2075 19.6958 13.3425L18.4316 23.565C18.3714 23.85 18.2484 24.0975 18.0754 24.305L18.0528 24.33C17.8571 24.5075 17.6038 24.6025 17.3379 24.5875H4.17152C4.15146 24.5875 4.1339 24.5875 4.11885 24.5875ZM2.3956 12.6925C2.30028 12.8275 2.25263 12.995 2.26016 13.16L3.53189 23.445C3.56701 23.7675 3.8053 24.0975 4.15397 24.085H17.3429C17.4759 24.0875 17.6038 24.0475 17.6991 23.9675C17.8145 23.825 17.8948 23.6575 17.9349 23.48L19.1941 13.29C19.1991 13.21 19.1941 13.1175 19.179 13.0275C19.1264 12.7575 18.9132 12.555 18.6673 12.5475H2.72671C2.60129 12.55 2.48089 12.6025 2.3956 12.6925Z" fill="black" />
    <path d="M7.71316 20.8C6.05513 18.0075 10.066 13.3575 12.9306 15.0125C13.0459 15.08 13.0409 15.2525 12.9205 15.31C12.0401 15.73 11.1095 16.2625 10.6931 17.175C10.2842 17.97 10.2265 18.9475 9.6747 19.6625C9.22319 20.14 8.55095 20.5175 7.964 20.86C7.8762 20.91 7.76333 20.885 7.71316 20.8Z" fill="black" />
    <path d="M13.0986 20.1425C11.8494 21.7125 9.81516 22.5875 8.30513 21.4575C8.18222 21.365 8.22486 21.17 8.37285 21.135C9.07268 20.96 9.77001 20.6975 10.3093 20.215C11.1922 19.365 11.1596 17.9825 11.857 17.0375C12.316 16.54 12.8779 16.07 13.3871 15.62C13.4598 15.5575 13.5727 15.565 13.6304 15.6425C14.4456 16.7725 14.265 18.64 13.0986 20.1425Z" fill="black" />
    <path d="M17.9624 2.9125H16.6781C16.0234 2.905 16.0109 1.97999 16.653 1.95749H18C18.4114 1.95749 18.6823 1.52749 18.4992 1.15999C18.2032 0.564987 17.842 0.0524902 17.4833 0.0524902H3.9306C3.53428 0.0524902 3.16806 0.564978 2.87709 1.16498C2.69899 1.53248 2.9699 1.95749 3.37876 1.95749H11.0769C11.7216 1.97999 11.704 2.905 11.0518 2.9125C11.0518 2.9125 3.19816 2.91 1.38462 2.91C1.15886 2.91 0.958201 3.04498 0.875425 3.25248L0.0526756 5.27497C-0.0677257 5.57247 0.150513 5.895 0.471582 5.895H20.9925C21.3136 5.895 21.5343 5.57 21.4114 5.2725L20.5861 3.255C20.5009 3.0475 20.2977 2.91 20.0719 2.91H17.9624V2.9125Z" fill="black" />
    <path d="M27.9406 4.89248H41.1823C41.5134 4.89248 41.7793 5.15997 41.7793 5.48747V7.12997C41.7793 7.45997 41.5109 7.72498 41.1823 7.72498H30.3763V14.3675H40.3922C40.7233 14.3675 40.9891 14.635 40.9891 14.9625V16.605C40.9891 16.935 40.7207 17.2 40.3922 17.2H30.3763V24.3475H41.7517C42.0828 24.3475 42.3487 24.615 42.3487 24.9425V26.585C42.3487 26.915 42.0803 27.18 41.7517 27.18H27.9381C27.6095 27.18 27.3437 26.915 27.3437 26.5875V5.48497C27.3437 5.15747 27.6121 4.89248 27.9406 4.89248Z" fill="black" />
    <path d="M54.4939 15.6225C54.2581 15.8 53.9345 15.7675 53.7238 15.565C53.468 15.3175 53.177 15.1 52.8509 14.9125C52.3668 14.635 51.7748 14.4975 51.0775 14.4975C50.4178 14.4975 49.8484 14.635 49.3643 14.9125C48.8802 15.19 48.6394 15.595 48.6394 16.1275C48.6394 16.5575 48.7773 16.9075 49.0558 17.1725C49.3342 17.44 49.6628 17.655 50.0441 17.8175C50.4253 17.9825 50.8317 18.105 51.2631 18.1875C51.6946 18.27 52.0658 18.3425 52.3743 18.4025C52.9713 18.5475 53.5307 18.72 54.0574 18.925C54.5817 19.13 55.0332 19.3975 55.4145 19.725C55.7957 20.0525 56.0942 20.4525 56.3099 20.925C56.5257 21.3975 56.6335 21.97 56.6335 22.6475C56.6335 23.4675 56.4579 24.17 56.1093 24.755C55.7581 25.34 55.3066 25.8175 54.7523 26.185C54.1954 26.555 53.5633 26.82 52.8534 26.985C52.1436 27.15 51.4287 27.2325 50.7088 27.2325C49.4947 27.2325 48.4287 27.0475 47.5156 26.6775C46.7506 26.37 46.0558 25.8475 45.4262 25.11C45.2155 24.8625 45.2531 24.49 45.5039 24.285L46.7656 23.25C46.9864 23.07 47.3074 23.0725 47.5207 23.2625C47.8768 23.5775 48.2606 23.865 48.6745 24.125C49.2288 24.475 49.9086 24.6475 50.7113 24.6475C51.06 24.6475 51.4161 24.6125 51.7773 24.54C52.136 24.4675 52.4571 24.355 52.733 24.2025C53.0115 24.05 53.2372 23.855 53.4128 23.6175C53.5884 23.3825 53.6762 23.11 53.6762 22.8025C53.6762 22.3925 53.5482 22.055 53.2899 21.7875C53.0315 21.52 52.723 21.31 52.3643 21.1575C52.0031 21.005 51.6243 20.88 51.223 20.7875C50.8217 20.695 50.4655 20.6175 50.1569 20.5575C49.5599 20.415 48.9956 20.25 48.4588 20.065C47.9245 19.88 47.4504 19.635 47.039 19.3275C46.6277 19.02 46.2991 18.63 46.0508 18.1575C45.8049 17.685 45.6795 17.1025 45.6795 16.405C45.6795 15.645 45.8375 14.985 46.1586 14.42C46.4772 13.855 46.8986 13.39 47.4253 13.02C47.9496 12.65 48.5466 12.375 49.2163 12.19C49.886 12.005 50.5583 11.9125 51.238 11.9125C52.2263 11.9125 53.172 12.0975 54.0775 12.465C54.8074 12.7625 55.4145 13.22 55.9036 13.8375C56.1018 14.0875 56.0441 14.4575 55.7882 14.65L54.4939 15.6225Z" fill="black" />
    <path d="M60.2283 12.1525H61.8763C62.2074 12.1525 62.4732 12.42 62.4732 12.7475V14.2925H62.536C63.0828 13.495 63.8353 12.875 64.7935 12.435C65.7517 11.995 66.735 11.775 67.7483 11.775C68.9072 11.775 69.9529 11.975 70.8911 12.3725C71.8292 12.77 72.6296 13.3275 73.2918 14.04C73.9565 14.7525 74.4657 15.5875 74.8244 16.5425C75.1831 17.4975 75.3612 18.52 75.3612 19.6125C75.3612 20.725 75.1831 21.76 74.8244 22.7125C74.4657 23.6675 73.9565 24.4975 73.2918 25.2C72.6271 25.9025 71.8292 26.455 70.8911 26.8525C69.9529 27.25 68.9072 27.45 67.7483 27.45C66.6748 27.45 65.6636 27.225 64.7155 26.7725C63.7673 26.3225 63.0426 25.7075 62.536 24.93H62.4732V31.3375C62.4732 31.6675 62.2049 31.9325 61.8763 31.9325H60.2283C59.8972 31.9325 59.6313 31.665 59.6313 31.3375V12.7425C59.6288 12.42 59.8972 12.1525 60.2283 12.1525ZM67.4022 14.42C66.6446 14.42 65.9596 14.55 65.3476 14.8125C64.7355 15.075 64.2216 15.4325 63.8002 15.8825C63.3788 16.335 63.0527 16.88 62.8219 17.52C62.5886 18.16 62.4758 18.8575 62.4758 19.615C62.4758 20.37 62.5911 21.0675 62.8219 21.7075C63.0527 22.3475 63.3788 22.895 63.8002 23.345C64.2216 23.7975 64.7355 24.1525 65.3476 24.415C65.9571 24.6775 66.6421 24.8075 67.4022 24.8075C68.1597 24.8075 68.8442 24.6775 69.4563 24.415C70.0658 24.1525 70.5828 23.795 71.0042 23.345C71.4256 22.895 71.7517 22.3475 71.9824 21.7075C72.2132 21.0675 72.3286 20.37 72.3286 19.615C72.3286 18.86 72.2132 18.1625 71.9824 17.52C71.7492 16.88 71.4231 16.335 71.0042 15.8825C70.5828 15.43 70.0658 15.075 69.4563 14.8125C68.8442 14.55 68.1597 14.42 67.4022 14.42Z" fill="black" />
    <path d="M78.9253 12.155H80.5884C80.922 12.155 81.1929 12.425 81.1929 12.7575V14.4775H81.2581C81.4487 14.075 81.7046 13.71 82.0232 13.38C82.3417 13.0525 82.6979 12.77 83.0917 12.5375C83.4855 12.305 83.9145 12.12 84.3835 11.9825C84.8501 11.845 85.3191 11.775 85.7857 11.775C86.0466 11.775 86.2949 11.795 86.5282 11.835C86.8317 11.8875 87.0549 12.15 87.0399 12.455L86.9621 14.3275C86.9471 14.6975 86.6034 14.96 86.2372 14.8925C86.2347 14.8925 86.2322 14.8925 86.2297 14.89C85.9964 14.8475 85.7606 14.825 85.5273 14.825C84.1227 14.825 83.0491 15.2175 82.3066 16.0025C81.5616 16.7875 81.1904 18.005 81.1904 19.6575V26.6225C81.1904 26.955 80.9195 27.225 80.5859 27.225H78.9228C78.5892 27.225 78.3183 26.955 78.3183 26.6225V12.7575C78.3233 12.425 78.5942 12.155 78.9253 12.155Z" fill="black" />
    <path d="M91.4925 20.5725C91.4925 21.21 91.6304 21.79 91.9089 22.315C92.1873 22.84 92.5535 23.285 93.0075 23.655C93.4615 24.025 93.9858 24.3125 94.5853 24.5175C95.1823 24.7225 95.8018 24.825 96.4415 24.825C97.3069 24.825 98.0594 24.625 98.699 24.2225C99.2032 23.9075 99.6722 23.5125 100.114 23.0375C100.319 22.815 100.658 22.785 100.899 22.9675L102.078 23.8675C102.349 24.075 102.389 24.47 102.158 24.7225C100.645 26.3925 98.6162 27.2275 96.0702 27.2275C94.9164 27.2275 93.8704 27.0325 92.9323 26.6425C91.9941 26.2525 91.2015 25.7125 90.5518 25.025C89.9022 24.3375 89.403 23.525 89.0518 22.59C88.7007 21.655 88.5276 20.6425 88.5276 19.555C88.5276 18.465 88.7182 17.4525 89.0995 16.5175C89.4808 15.5825 90.0075 14.77 90.6773 14.0825C91.347 13.395 92.1472 12.855 93.0752 12.465C94.0033 12.075 95.0142 11.88 96.1054 11.88C97.4047 11.88 98.5033 12.1075 99.3988 12.5575C100.297 13.01 101.032 13.6 101.609 14.33C102.186 15.06 102.605 15.8825 102.86 16.795C103.119 17.71 103.247 18.64 103.247 19.585V20.065C103.247 20.345 103.021 20.57 102.74 20.57H91.4925V20.5725ZM100.277 18.355C100.257 17.7375 100.159 17.1725 99.9833 16.66C99.8077 16.1475 99.5443 15.7 99.1957 15.32C98.8445 14.94 98.408 14.6425 97.8813 14.4275C97.357 14.2125 96.7425 14.105 96.0401 14.105C95.3604 14.105 94.7358 14.2325 94.1689 14.49C93.602 14.7475 93.1229 15.08 92.7316 15.4925C92.3403 15.905 92.0343 16.36 91.8186 16.865C91.6028 17.3675 91.495 17.8675 91.495 18.36H100.277V18.355Z" fill="black" />
    <path d="M115.134 15.515C114.895 15.695 114.569 15.6625 114.356 15.455C114.098 15.205 113.804 14.985 113.476 14.7975C112.987 14.5175 112.39 14.3775 111.685 14.3775C111.02 14.3775 110.443 14.5175 109.957 14.7975C109.467 15.0775 109.224 15.485 109.224 16.025C109.224 16.46 109.365 16.8125 109.645 17.08C109.926 17.35 110.258 17.5675 110.641 17.7325C111.025 17.9 111.436 18.0225 111.873 18.105C112.309 18.1875 112.683 18.26 112.994 18.3225C113.596 18.4675 114.163 18.6425 114.692 18.85C115.222 19.0575 115.678 19.3275 116.062 19.6575C116.446 19.99 116.747 20.3925 116.965 20.8675C117.183 21.3425 117.291 21.9225 117.291 22.605C117.291 23.4325 117.115 24.1425 116.762 24.7325C116.408 25.3225 115.952 25.8025 115.392 26.175C114.83 26.5475 114.193 26.8175 113.476 26.9825C112.758 27.1475 112.038 27.23 111.311 27.23C110.087 27.23 109.011 27.0425 108.088 26.67C107.315 26.36 106.613 25.8325 105.981 25.0875C105.768 24.84 105.805 24.4625 106.059 24.255L107.33 23.21C107.554 23.0275 107.877 23.03 108.09 23.2225C108.449 23.5425 108.838 23.8325 109.254 24.0925C109.814 24.445 110.501 24.62 111.311 24.62C111.665 24.62 112.021 24.585 112.385 24.5125C112.748 24.44 113.069 24.325 113.35 24.17C113.631 24.015 113.86 23.8175 114.035 23.58C114.211 23.3425 114.301 23.0675 114.301 22.7575C114.301 22.3425 114.171 22.0025 113.912 21.7325C113.651 21.465 113.34 21.2525 112.977 21.095C112.613 20.94 112.229 20.815 111.825 20.7225C111.421 20.63 111.063 20.5525 110.752 20.49C110.15 20.345 109.578 20.18 109.038 19.9925C108.499 19.8075 108.02 19.5575 107.606 19.2475C107.19 18.9375 106.859 18.545 106.61 18.0675C106.362 17.5925 106.237 17.0025 106.237 16.2975C106.237 15.5325 106.397 14.865 106.721 14.295C107.042 13.725 107.468 13.255 107.997 12.8825C108.527 12.51 109.129 12.23 109.804 12.045C110.478 11.86 111.158 11.765 111.843 11.765C112.839 11.765 113.794 11.9525 114.71 12.3225C115.445 12.6225 116.059 13.085 116.554 13.7075C116.754 13.96 116.696 14.3325 116.438 14.5275L115.134 15.515Z" fill="black" />
    <path d="M129.113 15.5875C128.875 15.7675 128.548 15.735 128.335 15.5275C128.077 15.2775 127.783 15.0575 127.455 14.87C126.966 14.59 126.369 14.45 125.664 14.45C124.999 14.45 124.422 14.59 123.936 14.87C123.446 15.15 123.203 15.5575 123.203 16.095C123.203 16.53 123.344 16.8825 123.625 17.15C123.906 17.42 124.237 17.6375 124.62 17.8025C125.004 17.97 125.416 18.0925 125.849 18.175C126.286 18.2575 126.66 18.33 126.971 18.3925C127.573 18.5375 128.14 18.7125 128.669 18.92C129.198 19.1275 129.655 19.3975 130.038 19.7275C130.422 20.06 130.723 20.4625 130.941 20.9375C131.16 21.4125 131.268 21.9925 131.268 22.675C131.268 23.5025 131.092 24.2125 130.738 24.8025C130.385 25.3925 129.928 25.8725 129.369 26.245C128.807 26.6175 128.17 26.8875 127.452 27.0525C126.735 27.2175 126.015 27.3 125.288 27.3C124.064 27.3 122.987 27.1125 122.064 26.74C121.292 26.43 120.589 25.9025 119.957 25.1575C119.744 24.91 119.782 24.5325 120.035 24.325L121.307 23.28C121.53 23.0975 121.854 23.1 122.067 23.2925C122.426 23.6125 122.814 23.9025 123.231 24.1625C123.79 24.515 124.477 24.69 125.285 24.69C125.639 24.69 125.995 24.655 126.359 24.5825C126.722 24.51 127.043 24.395 127.324 24.24C127.605 24.085 127.834 23.8875 128.009 23.65C128.185 23.4125 128.275 23.1375 128.275 22.8275C128.275 22.4125 128.145 22.0725 127.886 21.8025C127.625 21.535 127.314 21.3225 126.953 21.165C126.589 21.01 126.206 20.885 125.802 20.7925C125.398 20.7 125.039 20.6225 124.728 20.56C124.126 20.415 123.554 20.25 123.015 20.0625C122.476 19.8775 121.999 19.6275 121.583 19.3175C121.166 19.0075 120.835 18.615 120.587 18.1375C120.339 17.6625 120.213 17.0725 120.213 16.3675C120.213 15.6025 120.374 14.935 120.695 14.365C121.016 13.795 121.442 13.325 121.972 12.9525C122.501 12.58 123.103 12.3 123.778 12.115C124.452 11.93 125.132 11.835 125.817 11.835C126.813 11.835 127.768 12.0225 128.681 12.3925C129.416 12.6925 130.031 13.155 130.525 13.7775C130.726 14.03 130.668 14.4025 130.41 14.5975L129.113 15.5875Z" fill="black" />
    <path d="M134.23 19.5625C134.23 18.4925 134.431 17.495 134.834 16.57C135.236 15.645 135.788 14.8325 136.49 14.1325C137.192 13.4325 138.018 12.8825 138.966 12.4825C139.914 12.0825 140.935 11.88 142.031 11.88C143.125 11.88 144.145 12.08 145.094 12.4825C146.042 12.8825 146.87 13.4325 147.569 14.1325C148.272 14.8325 148.824 15.645 149.225 16.57C149.629 17.495 149.829 18.4925 149.829 19.5625C149.829 20.6325 149.629 21.635 149.225 22.57C148.824 23.505 148.269 24.3175 147.569 25.0075C146.867 25.6975 146.042 26.24 145.094 26.6425C144.145 27.0425 143.122 27.245 142.031 27.245C140.937 27.245 139.916 27.045 138.966 26.6425C138.015 26.24 137.19 25.6975 136.49 25.0075C135.788 24.3175 135.236 23.505 134.834 22.57C134.433 21.635 134.23 20.6325 134.23 19.5625ZM137.202 19.5625C137.202 20.3025 137.315 20.9875 137.543 21.6125C137.769 22.24 138.09 22.775 138.502 23.2175C138.913 23.66 139.42 24.01 140.019 24.2675C140.619 24.525 141.288 24.6525 142.031 24.6525C142.773 24.6525 143.443 24.525 144.043 24.2675C144.64 24.01 145.146 23.66 145.558 23.2175C145.969 22.775 146.29 22.24 146.518 21.6125C146.744 20.985 146.86 20.3 146.86 19.5625C146.86 18.8225 146.747 18.1375 146.518 17.51C146.29 16.8825 145.972 16.3475 145.558 15.9075C145.144 15.465 144.64 15.115 144.043 14.8575C143.443 14.6 142.773 14.4725 142.031 14.4725C141.288 14.4725 140.616 14.6 140.019 14.8575C139.42 15.115 138.916 15.465 138.502 15.9075C138.088 16.35 137.769 16.885 137.543 17.51C137.315 18.1375 137.202 18.8225 137.202 19.5625Z" fill="black" />
  </g>
  <defs>
    <clipPath id="clip0_espresso_logo">
      <rect width="150" height="32" fill="white" />
    </clipPath>
  </defs>
</svg>
